<svg xmlns="http://www.w3.org/2000/svg" xmlns:xlink="http://www.w3.org/1999/xlink" viewBox="0 0 24 30" version="1.1" x="0px" y="0px"><title>24pt_home</title><desc>Created with Sketch.</desc><g stroke="none" stroke-width="1" fill="none" fill-rule="evenodd"><g fill="#FFFFFF"><path d="M19,10.4162242 L19,20.0044225 C19,20.003856 17.7514064,20.0032335 16,20.0026388 L16,10.9975446 C16,10.4463114 15.5536144,10 15.0029699,10 L8.99703014,10 C8.44725688,10 8,10.446616 8,10.9975446 L8,20.0005916 C6.24905096,20.0002252 5.00087166,20 5.00087166,20 C4.99901587,20 4.99974485,12.3076782 4.99995214,10.416272 L12,3.42236252 L19,10.4162242 Z M21,12.4144704 L21,20.0044225 C21,21.1083969 20.1058051,22 18.9991283,22 L5.00087166,22 C3.89683112,22 3,21.1084687 3,20.0044225 L3,12.4144704 L2.70710678,12.7071068 C2.31658249,13.0976311 1.68341751,13.0976311 1.29289322,12.7071068 C0.902368927,12.3165825 0.902368927,11.6834175 1.29289322,11.2928932 L11.2928932,1.29289322 C11.6834175,0.902368927 12.3165825,0.902368927 12.7071068,1.29289322 L22.7071068,11.2928932 C23.0976311,11.6834175 23.0976311,12.3165825 22.7071068,12.7071068 C22.3165825,13.0976311 21.6834175,13.0976311 21.2928932,12.7071068 L21,12.4144704 L21,12.4144704 Z M14,20.002026 C12.7001285,20.0016614 11.2998266,20.0013207 10,20.0010266 L10,12 L14,11.9984436 L14,20.002026 L14,20.002026 Z"/></g></g><text x="0" y="39" fill="#000000" font-size="5px" font-weight="bold" font-family="'Helvetica Neue', Helvetica, Arial-Unicode, Arial, Sans-serif">Created by Denis Klyuchnikov</text><text x="0" y="44" fill="#000000" font-size="5px" font-weight="bold" font-family="'Helvetica Neue', Helvetica, Arial-Unicode, Arial, Sans-serif">from the Noun Project</text></svg>
