<svg width="133" height="45" viewBox="0 0 133 45" fill="none" xmlns="http://www.w3.org/2000/svg">
<path d="M4.88336 35.5V9.80078H6.67633V35.5H4.88336ZM36.6653 35.5V22.9668C36.6653 21.1035 36.302 19.7441 35.5755 18.8887C34.8489 18.0332 33.7356 17.6055 32.2356 17.6055C30.2786 17.6055 28.8313 18.1445 27.8938 19.2227C26.9563 20.3008 26.4876 21.9941 26.4876 24.3027V35.5H24.7122V22.4395C24.7122 19.2168 23.2356 17.6055 20.2825 17.6055C18.2786 17.6055 16.8196 18.1914 15.9055 19.3633C14.9915 20.5234 14.5345 22.3867 14.5345 24.9531V35.5H12.7942V16.3926H14.2356L14.6048 19.0117H14.7102C15.2376 18.0625 15.9876 17.3301 16.9602 16.8145C17.9329 16.2871 19.0052 16.0234 20.177 16.0234C23.1887 16.0234 25.1223 17.1543 25.9778 19.416H26.0481C26.6692 18.3262 27.5012 17.4883 28.5442 16.9023C29.5989 16.3164 30.7942 16.0234 32.1302 16.0234C34.2161 16.0234 35.7805 16.5801 36.8235 17.6934C37.8665 18.8066 38.388 20.5762 38.388 23.002V35.5H36.6653ZM58.7617 16.3926V17.6055L54.8066 17.8516C55.8613 19.1641 56.3887 20.6055 56.3887 22.1758C56.3887 24.0156 55.7734 25.5098 54.543 26.6582C53.3242 27.7949 51.6836 28.3633 49.6211 28.3633C48.7539 28.3633 48.1445 28.3281 47.793 28.2578C47.1016 28.6211 46.5742 29.0488 46.2109 29.541C45.8477 30.0332 45.666 30.5547 45.666 31.1055C45.666 31.7148 45.8945 32.1602 46.3516 32.4414C46.8203 32.7227 47.5996 32.8633 48.6895 32.8633H52.0293C54.1035 32.8633 55.6914 33.2852 56.793 34.1289C57.8945 34.9609 58.4453 36.1973 58.4453 37.8379C58.4453 39.8535 57.625 41.4062 55.9844 42.4961C54.3555 43.5977 52.0293 44.1484 49.0059 44.1484C46.6035 44.1484 44.7402 43.6855 43.416 42.7598C42.1035 41.834 41.4473 40.5449 41.4473 38.8926C41.4473 37.5801 41.8516 36.4902 42.6602 35.623C43.4805 34.7559 44.5879 34.1641 45.9824 33.8477C45.4082 33.6016 44.9453 33.2559 44.5938 32.8105C44.2539 32.3535 44.084 31.832 44.084 31.2461C44.084 29.9688 44.8984 28.8438 46.5273 27.8711C45.4141 27.4141 44.5469 26.6992 43.9258 25.7266C43.3047 24.7422 42.9941 23.6172 42.9941 22.3516C42.9941 20.4414 43.5977 18.9121 44.8047 17.7637C46.0234 16.6035 47.6641 16.0234 49.7266 16.0234C50.9805 16.0234 51.9531 16.1465 52.6445 16.3926H58.7617ZM43.293 38.7344C43.293 41.3594 45.2441 42.6719 49.1465 42.6719C54.1621 42.6719 56.6699 41.0723 56.6699 37.873C56.6699 36.7246 56.2773 35.8926 55.4922 35.377C54.707 34.8613 53.4355 34.6035 51.6777 34.6035H48.5488C45.0449 34.6035 43.293 35.9805 43.293 38.7344ZM44.752 22.3516C44.752 23.8281 45.1973 24.9766 46.0879 25.7969C46.9902 26.6055 48.1914 27.0098 49.6914 27.0098C51.2852 27.0098 52.5039 26.6055 53.3477 25.7969C54.2031 24.9883 54.6309 23.8164 54.6309 22.2812C54.6309 20.6523 54.1914 19.4336 53.3125 18.625C52.4453 17.8047 51.2266 17.3945 49.6562 17.3945C48.1328 17.3945 46.9316 17.834 46.0527 18.7129C45.1855 19.5801 44.752 20.793 44.752 22.3516Z" fill="white"/>
<path d="M83.793 35.5H78.3613V24.4082H68.1836V35.5H62.7344V9.80078H68.1836V19.873H78.3613V9.80078H83.793V35.5ZM103.077 35.5L102.356 32.9863H102.075C101.501 33.9004 100.686 34.6094 99.6316 35.1133C98.5769 35.6055 97.3757 35.8516 96.028 35.8516C93.7195 35.8516 91.9792 35.2363 90.8073 34.0059C89.6355 32.7637 89.0495 30.9824 89.0495 28.6621V15.8477H94.4109V27.3262C94.4109 28.7441 94.6628 29.8105 95.1667 30.5254C95.6706 31.2285 96.4734 31.5801 97.5749 31.5801C99.0749 31.5801 100.159 31.082 100.827 30.0859C101.495 29.0781 101.829 27.4141 101.829 25.0938V15.8477H107.19V35.5H103.077ZM123.029 15.4785C125.349 15.4785 127.165 16.3867 128.478 18.2031C129.79 20.0078 130.447 22.4863 130.447 25.6387C130.447 28.8848 129.767 31.3984 128.408 33.1797C127.06 34.9609 125.22 35.8516 122.888 35.8516C120.58 35.8516 118.769 35.0137 117.456 33.3379H117.087L116.191 35.5H112.095V8.14844H117.456V14.5117C117.456 15.3203 117.386 16.6152 117.246 18.3965H117.456C118.71 16.4512 120.568 15.4785 123.029 15.4785ZM121.306 19.7676C119.982 19.7676 119.015 20.1777 118.406 20.998C117.796 21.8066 117.48 23.1484 117.456 25.0234V25.6035C117.456 27.7129 117.767 29.2246 118.388 30.1387C119.021 31.0527 120.017 31.5098 121.376 31.5098C122.478 31.5098 123.351 31.0059 123.996 29.998C124.652 28.9785 124.98 27.502 124.98 25.5684C124.98 23.6348 124.652 22.1875 123.996 21.2266C123.339 20.2539 122.443 19.7676 121.306 19.7676Z" fill="white"/>
</svg>
